<?xml version="1.0" encoding="UTF-8" standalone="no"?>
<!-- Created with Inkscape (http://www.inkscape.org/) -->

<svg
   xmlns:dc="http://purl.org/dc/elements/1.1/"
   xmlns:cc="http://creativecommons.org/ns#"
   xmlns:rdf="http://www.w3.org/1999/02/22-rdf-syntax-ns#"
   xmlns:svg="http://www.w3.org/2000/svg"
   xmlns="http://www.w3.org/2000/svg"
   xmlns:sodipodi="http://sodipodi.sourceforge.net/DTD/sodipodi-0.dtd"
   xmlns:inkscape="http://www.inkscape.org/namespaces/inkscape"
   width="128"
   height="128"
   id="svg2"
   version="1.1"
   inkscape:version="0.48.5 r10040"
   sodipodi:docname="Recording.svg">
  <defs
     id="defs4" />
  <sodipodi:namedview
     id="base"
     pagecolor="#ffffff"
     bordercolor="#666666"
     borderopacity="1.0"
     inkscape:pageopacity="0.0"
     inkscape:pageshadow="2"
     inkscape:zoom="1.979899"
     inkscape:cx="125.06762"
     inkscape:cy="-5.3958893"
     inkscape:document-units="px"
     inkscape:current-layer="layer1"
     showgrid="false"
     fit-margin-top="0"
     fit-margin-left="0"
     fit-margin-right="0"
     fit-margin-bottom="0"
     inkscape:window-width="1680"
     inkscape:window-height="988"
     inkscape:window-x="-2"
     inkscape:window-y="-3"
     inkscape:window-maximized="1" />
  <metadata
     id="metadata7">
    <rdf:RDF>
      <cc:Work
         rdf:about="">
        <dc:format>image/svg+xml</dc:format>
        <dc:type
           rdf:resource="http://purl.org/dc/dcmitype/StillImage" />
        <dc:title />
      </cc:Work>
    </rdf:RDF>
  </metadata>
  <g
     inkscape:label="Ebene 1"
     inkscape:groupmode="layer"
     id="layer1"
     transform="translate(-533.14288,-671.2193)">
    <path
       style="fill:#ffffff;fill-opacity:1;stroke:none"
       d="M 4.21875 5.0625 C 1.8786638 5.0625 0 6.9724138 0 9.3125 L 0 118.71875 C 0 121.05884 1.8786638 122.9375 4.21875 122.9375 L 10.03125 122.9375 L 10.03125 118.03125 L 24 118.03125 L 24 122.9375 L 104 122.9375 L 104 118.03125 L 117.96875 118.03125 L 117.96875 122.9375 L 123.78125 122.9375 C 126.12134 122.9375 128 121.05884 128 118.71875 L 128 9.3125 C 128 6.9724138 126.12134 5.0625 123.78125 5.0625 L 117.96875 5.0625 L 117.96875 13.90625 L 104 13.90625 L 104 5.0625 L 24 5.0625 L 24 13.96875 L 10.03125 13.96875 L 10.03125 5.0625 L 4.21875 5.0625 z M 10 30 L 23.96875 30 L 23.96875 44 L 10 44 L 10 30 z M 104 30.03125 L 117.96875 30.03125 L 117.96875 44.03125 L 104 44.03125 L 104 30.03125 z M 52.71875 41.1875 C 53.425233 41.102441 54.181335 41.26852 55 41.78125 C 65.57607 48.19339 76.34291 54.7468 86.875 60.96875 C 87.79599 61.51283 88.40625 62.80843 88.40625 64 C 88.40625 65.1659 87.80244 66.50281 86.90625 67.03125 L 55 85.84375 C 51.68918 87.84642 49.09375 84.89837 49.09375 82.90625 L 49.09375 45.375 C 49.09375 43.880917 50.599301 41.442678 52.71875 41.1875 z M 10 59 L 23.96875 59 L 23.96875 73 L 10 73 L 10 59 z M 104 59.0625 L 117.96875 59.0625 L 117.96875 73.0625 L 104 73.0625 L 104 59.0625 z M 104 89 L 117.96875 89 L 117.96875 103 L 104 103 L 104 89 z M 10.03125 89.03125 L 24 89.03125 L 24 103.03125 L 10.03125 103.03125 L 10.03125 89.03125 z "
       transform="translate(533.14288,671.2193)"
       id="rect2996" />
  </g>
</svg>
