<?xml version="1.0" encoding="UTF-8" standalone="no"?>
<!-- Created with Inkscape (http://www.inkscape.org/) -->

<svg
   xmlns:dc="http://purl.org/dc/elements/1.1/"
   xmlns:cc="http://creativecommons.org/ns#"
   xmlns:rdf="http://www.w3.org/1999/02/22-rdf-syntax-ns#"
   xmlns:svg="http://www.w3.org/2000/svg"
   xmlns="http://www.w3.org/2000/svg"
   xmlns:sodipodi="http://sodipodi.sourceforge.net/DTD/sodipodi-0.dtd"
   xmlns:inkscape="http://www.inkscape.org/namespaces/inkscape"
   width="27.33"
   height="27.33"
   id="svg2"
   version="1.1"
   inkscape:version="0.48.5 r10040"
   sodipodi:docname="rec_off.svg">
  <defs
     id="defs4" />
  <sodipodi:namedview
     id="base"
     pagecolor="#ffffff"
     bordercolor="#666666"
     borderopacity="1.0"
     inkscape:pageopacity="0.0"
     inkscape:pageshadow="2"
     inkscape:zoom="8"
     inkscape:cx="3.9712015"
     inkscape:cy="-12.902143"
     inkscape:document-units="px"
     inkscape:current-layer="layer1"
     showgrid="false"
     fit-margin-top="0"
     fit-margin-left="0"
     fit-margin-right="0"
     fit-margin-bottom="0"
     inkscape:window-width="836"
     inkscape:window-height="983"
     inkscape:window-x="0"
     inkscape:window-y="0"
     inkscape:window-maximized="0" />
  <metadata
     id="metadata7">
    <rdf:RDF>
      <cc:Work
         rdf:about="">
        <dc:format>image/svg+xml</dc:format>
        <dc:type
           rdf:resource="http://purl.org/dc/dcmitype/StillImage" />
        <dc:title />
      </cc:Work>
    </rdf:RDF>
  </metadata>
  <g
     inkscape:label="Ebene 1"
     inkscape:groupmode="layer"
     id="layer1"
     transform="translate(-377.76247,-710.87849)">
    <g
       transform="matrix(3.1268038,0,0,2.8700568,384.95616,859.565)"
       style="font-size:6px;font-style:normal;font-variant:normal;font-weight:bold;font-stretch:normal;line-height:125%;letter-spacing:0px;word-spacing:0px;fill:#ffffff;fill-opacity:1;stroke:none;font-family:Opal;-inkscape-font-specification:Opal Bold"
       id="flowRoot2994">
      <path
         d="m -1.023,-49.08189 c 0.0799983,4e-6 0.15799824,0.006 0.234,0.018 0.0759981,0.008 0.15199801,0.024 0.228,0.048 0.12799781,0.04 0.24599769,0.096 0.354,0.168 0.10799747,0.072 0.20399738,0.160003 0.288,0.264 0.07199722,0.100003 0.12599717,0.210003 0.162,0.33 0.0399971,0.120003 0.0579971,0.244003 0.054,0.372 -2.92e-6,0.056 -0.006003,0.112002 -0.018,0.168 -0.008003,0.052 -0.0220029,0.106002 -0.042,0.162 -0.0400028,0.108002 -0.0980028,0.206002 -0.174,0.294 -0.07200262,0.088 -0.15800253,0.162002 -0.258,0.222 0.10399747,0.04 0.19799737,0.098 0.282,0.174 0.0879972,0.072 0.15799713,0.158001 0.21,0.258 0.0279971,0.06 0.047997,0.120001 0.06,0.18 0.015997,0.06 0.023997,0.122001 0.024,0.186 -3.01e-6,0.016 -3.01e-6,0.032 0,0.048 -3.01e-6,0.012 -0.002003,0.026 -0.006,0.042 l 0,1.14 -0.594,0 0,-1.2 c -2.41e-6,-0.016 -2.41e-6,-0.034 0,-0.054 -2.41e-6,-0.024 -0.002002,-0.048 -0.006,-0.072 -0.004002,-0.02 -0.0100024,-0.04 -0.018,-0.06 -0.008002,-0.024 -0.0160024,-0.046 -0.024,-0.066 -0.0240023,-0.04 -0.0540023,-0.076 -0.09,-0.108 -0.0320022,-0.032 -0.0680022,-0.06 -0.108,-0.084 -0.0640021,-0.032 -0.13000203,-0.056 -0.198,-0.072 -0.0640019,-0.016 -0.13200183,-0.024 -0.204,-0.024 l -0.66,-0.006 0,-0.504 0.642,0 c 0.0559982,-0.004 0.10799815,-0.014 0.156,-0.03 0.0519981,-0.016 0.101998,-0.036 0.15,-0.06 0.0439979,-0.024 0.0839979,-0.052 0.12,-0.084 0.0399978,-0.032 0.0739978,-0.068 0.102,-0.108 0.0239977,-0.044 0.0419977,-0.09 0.054,-0.138 0.0159977,-0.048 0.0259976,-0.096 0.03,-0.144 -2.35e-6,-0.008 -2.35e-6,-0.016 0,-0.024 0.003998,-0.012 0.005998,-0.024 0.006,-0.036 0.003998,-0.008 0.005998,-0.016 0.006,-0.024 -2.36e-6,-0.012 -2.36e-6,-0.022 0,-0.03 -2.36e-6,-0.032 -0.004002,-0.064 -0.012,-0.096 -0.004002,-0.036 -0.0120023,-0.07 -0.024,-0.102 -0.0160023,-0.048 -0.0380023,-0.094 -0.066,-0.138 -0.0280022,-0.044 -0.0600022,-0.084 -0.096,-0.12 -0.0440021,-0.036 -0.0940021,-0.066 -0.15,-0.09 -0.052002,-0.024 -0.10600191,-0.042 -0.162,-0.054 -0.0360018,-0.012 -0.0740018,-0.02 -0.114,-0.024 -0.0360017,-0.008 -0.0740017,-0.012 -0.114,-0.012 -0.008002,3e-6 -0.0160016,3e-6 -0.024,0 -0.008,3e-6 -0.016002,3e-6 -0.024,0 -0.008,3e-6 -0.016002,0.002 -0.024,0.006 -0.008,3e-6 -0.016002,3e-6 -0.024,0 -0.052002,0.004 -0.1040014,0.014 -0.156,0.03 -0.052001,0.016 -0.1000013,0.038 -0.144,0.066 -0.052001,0.032 -0.1000011,0.07 -0.144,0.114 -0.044001,0.044 -0.082001,0.092 -0.114,0.144 -0.032001,0.064 -0.056001,0.130003 -0.072,0.198 -0.012001,0.068 -0.016001,0.138003 -0.012,0.21 l 0,2.796 -0.564,0 0,-3.06 c 0.02,-0.076 0.048,-0.149997 0.084,-0.222 0.036,-0.076 0.074,-0.145997 0.114,-0.21 0.035999,-0.056 0.073999,-0.105997 0.114,-0.15 0.043999,-0.044 0.089999,-0.084 0.138,-0.12 0.055999,-0.044 0.1119991,-0.082 0.168,-0.114 0.055999,-0.036 0.1159989,-0.066 0.18,-0.09 0.079999,-0.032 0.1599987,-0.056 0.24,-0.072 0.079999,-0.016 0.1599985,-0.026 0.24,-0.03 l 0,-0.006"
         style="fill:#ffffff"
         id="path2988"
         inkscape:connector-curvature="0" />
      <path
         d="m 2.7676875,-49.05189 0.594,0 0,0.534 c -0.052003,-0.004 -0.1060026,-0.006 -0.162,-0.006 -0.052002,-0.004 -0.1040024,-0.006 -0.156,-0.006 -0.064002,3e-6 -0.1280022,0.004 -0.192,0.012 -0.064002,0.004 -0.128002,0.01 -0.192,0.018 -0.092002,0.016 -0.1840018,0.04 -0.276,0.072 -0.088002,0.028 -0.1720015,0.064 -0.252,0.108 -0.068001,0.036 -0.1340013,0.076 -0.198,0.12 -0.060001,0.044 -0.1180011,0.094 -0.174,0.15 -0.092001,0.100003 -0.1680009,0.212002 -0.228,0.336 -0.056001,0.120002 -0.094001,0.248002 -0.114,0.384 l 1.95,-0.006 0,0.528 -1.95,0 c 0.004,0.136001 0.027999,0.266001 0.072,0.39 0.047999,0.124001 0.1139991,0.238001 0.198,0.342 0.055999,0.068 0.1159989,0.132001 0.18,0.192 0.063999,0.06 0.1339987,0.114 0.21,0.162 0.1319985,0.068 0.2699983,0.12 0.414,0.156 0.143998,0.032 0.2899979,0.048 0.438,0.048 l 0.438,-0.006 0,0.516 -0.438,0 -0.426,-0.012 c -0.1040017,-0.016 -0.2060016,-0.04 -0.306,-0.072 -0.1000014,-0.036 -0.1960013,-0.078 -0.288,-0.126 -0.088001,-0.044 -0.1720011,-0.092 -0.252,-0.144 -0.076001,-0.056 -0.1500008,-0.116 -0.222,-0.18 -0.076001,-0.08 -0.1480006,-0.164 -0.216,-0.252 -0.068001,-0.092 -0.1280004,-0.187999 -0.18,-0.288 -0.0400003,-0.08 -0.0740003,-0.159999 -0.102,-0.24 -0.0280002,-0.084 -0.0500002,-0.169999 -0.066,-0.258 -0.0120002,-0.08 -0.0220002,-0.159999 -0.03,-0.24 -0.008,-0.084 -0.0120001,-0.165998 -0.012,-0.246 -1.5e-7,-0.064 0.002,-0.127998 0.006,-0.192 0.008,-0.068 0.0159998,-0.133998 0.024,-0.198 0.0319998,-0.103998 0.0679997,-0.205998 0.108,-0.306 0.0439997,-0.1 0.0899996,-0.199997 0.138,-0.3 0.063999,-0.103997 0.1379994,-0.199997 0.222,-0.288 0.083999,-0.092 0.1759992,-0.173997 0.276,-0.246 0.079999,-0.052 0.1619989,-0.101997 0.246,-0.15 0.083999,-0.048 0.1699987,-0.094 0.258,-0.138 0.1039985,-0.044 0.2119984,-0.08 0.324,-0.108 0.1119981,-0.028 0.223998,-0.046 0.336,-0.054 l 0,-0.006"
         style="fill:#ffffff"
         id="path2990"
         inkscape:connector-curvature="0" />
      <path
         d="m 6.44025,-49.05189 0,0.534 c -0.020003,3e-6 -0.042003,3e-6 -0.066,0 -0.020003,-0.004 -0.040003,-0.006 -0.06,-0.006 -0.024003,3e-6 -0.048003,3e-6 -0.072,0 -0.020003,3e-6 -0.040002,3e-6 -0.06,0 -0.064002,3e-6 -0.1280024,0.002 -0.192,0.006 -0.064002,0.004 -0.1280022,0.012 -0.192,0.024 -0.100002,0.004 -0.1980019,0.022 -0.294,0.054 -0.092002,0.028 -0.1840017,0.064 -0.276,0.108 -0.072001,0.032 -0.1420014,0.072 -0.21,0.12 -0.064001,0.048 -0.1240012,0.100003 -0.18,0.156 -0.056001,0.056 -0.1080011,0.118003 -0.156,0.186 -0.044001,0.064 -0.082001,0.132002 -0.114,0.204 -0.036001,0.076 -0.066001,0.156002 -0.09,0.24 -0.024001,0.08 -0.040001,0.160002 -0.048,0.24 -0.008,0.04 -0.014001,0.082 -0.018,0.126 -0.004,0.044 -0.006,0.088 -0.006,0.132 -8e-7,0.04 0.002,0.08 0.006,0.12 0.008,0.04 0.013999,0.082 0.018,0.126 0.015999,0.084 0.039999,0.166001 0.072,0.246 0.031999,0.076 0.071999,0.150001 0.12,0.222 0.091999,0.124001 0.1959988,0.238001 0.312,0.342 0.1159986,0.1 0.2419985,0.184 0.378,0.252 0.1279982,0.04 0.2579981,0.07 0.39,0.09 0.1319978,0.02 0.2639977,0.03 0.396,0.03 0.055998,0 0.1119974,-0.002 0.168,-0.006 0.059997,-0.004 0.1179973,-0.01 0.174,-0.018 l 0,0.516 -0.414,0 -0.408,-0.006 c -0.1040019,-0.008 -0.2080018,-0.026 -0.312,-0.054 -0.1040015,-0.028 -0.2040014,-0.064 -0.3,-0.108 -0.084001,-0.036 -0.1660012,-0.078 -0.246,-0.126 -0.076001,-0.052 -0.148001,-0.11 -0.216,-0.174 -0.072001,-0.056 -0.1380008,-0.118 -0.198,-0.186 -0.060001,-0.068 -0.1160006,-0.14 -0.168,-0.216 -0.064001,-0.103999 -0.1200004,-0.211999 -0.168,-0.324 -0.044,-0.115999 -0.082,-0.233999 -0.114,-0.354 -0.012,-0.123999 -0.02,-0.245999 -0.024,-0.366 -2e-7,-0.123998 0.004,-0.245998 0.012,-0.366 0.016,-0.107998 0.04,-0.211998 0.072,-0.312 0.036,-0.103998 0.08,-0.203998 0.132,-0.3 0.055999,-0.096 0.1139995,-0.187997 0.174,-0.276 0.063999,-0.092 0.1339993,-0.177997 0.21,-0.258 0.059999,-0.068 0.1259991,-0.127997 0.198,-0.18 0.075999,-0.056 0.1539988,-0.103997 0.234,-0.144 0.1199986,-0.064 0.2419985,-0.115996 0.366,-0.156 0.1239983,-0.044 0.2519981,-0.078 0.384,-0.102 0.083998,-0.016 0.1679978,-0.028 0.252,-0.036 0.083998,-0.008 0.1679976,-0.012 0.252,-0.012 0.047997,4e-6 0.095997,0.002 0.144,0.006 0.047997,4e-6 0.093997,0.004 0.138,0.012 l 0,-0.006"
         style="fill:#ffffff"
         id="path2992"
         inkscape:connector-curvature="0" />
    </g>
  </g>
</svg>
