<?xml version="1.0" encoding="UTF-8" standalone="no"?>
<!-- Created with Inkscape (http://www.inkscape.org/) -->

<svg
   xmlns:dc="http://purl.org/dc/elements/1.1/"
   xmlns:cc="http://creativecommons.org/ns#"
   xmlns:rdf="http://www.w3.org/1999/02/22-rdf-syntax-ns#"
   xmlns:svg="http://www.w3.org/2000/svg"
   xmlns="http://www.w3.org/2000/svg"
   xmlns:sodipodi="http://sodipodi.sourceforge.net/DTD/sodipodi-0.dtd"
   xmlns:inkscape="http://www.inkscape.org/namespaces/inkscape"
   width="32.29324"
   height="11.968137"
   id="svg2"
   version="1.1"
   inkscape:version="0.48.5 r10040"
   sodipodi:docname="format_off.svg">
  <defs
     id="defs4" />
  <sodipodi:namedview
     id="base"
     pagecolor="#000000"
     bordercolor="#666666"
     borderopacity="1.0"
     inkscape:pageopacity="0.0"
     inkscape:pageshadow="2"
     inkscape:zoom="4"
     inkscape:cx="-53.982936"
     inkscape:cy="42.177122"
     inkscape:document-units="px"
     inkscape:current-layer="layer1"
     showgrid="false"
     fit-margin-top="0"
     fit-margin-left="0"
     fit-margin-right="0"
     fit-margin-bottom="0"
     inkscape:window-width="1680"
     inkscape:window-height="988"
     inkscape:window-x="-2"
     inkscape:window-y="-3"
     inkscape:window-maximized="1" />
  <metadata
     id="metadata7">
    <rdf:RDF>
      <cc:Work
         rdf:about="">
        <dc:format>image/svg+xml</dc:format>
        <dc:type
           rdf:resource="http://purl.org/dc/dcmitype/StillImage" />
        <dc:title />
      </cc:Work>
    </rdf:RDF>
  </metadata>
  <g
     inkscape:label="Ebene 1"
     inkscape:groupmode="layer"
     id="layer1"
     transform="translate(-375.28194,-717.37812)">
    <g
       transform="matrix(3.1268038,0,0,2.8700568,381.38859,858.31481)"
       style="font-size:6px;font-style:normal;font-variant:normal;font-weight:bold;font-stretch:normal;line-height:125%;letter-spacing:0px;word-spacing:0px;fill:#000000;fill-opacity:1;stroke:none;font-family:Opal;-inkscape-font-specification:Opal Bold"
       id="flowRoot2994">
      <path
         d="m -1.785,-49.03989 1.122,0 0,4.032 -0.57,0 0,-3.516 -0.72,0 0.168,-0.516"
         id="path2987"
         inkscape:connector-curvature="0" />
      <path
         d="m 2.3656875,-49.03989 0.63,0 -1.464,2.118 c -0.040001,0.084 -0.072001,0.170001 -0.096,0.258 -0.024001,0.088 -0.038001,0.178001 -0.042,0.27 -0.004,0.06 -0.002,0.118001 0.006,0.174 0.011999,0.056 0.029999,0.112001 0.054,0.168 0.027999,0.068 0.061999,0.134001 0.102,0.198 0.043999,0.06 0.091999,0.116 0.144,0.168 0.047999,0.04 0.097999,0.074 0.15,0.102 0.051999,0.024 0.1059987,0.046 0.162,0.066 0.023999,0.004 0.047999,0.01 0.072,0.018 0.023999,0.004 0.049999,0.006 0.078,0.006 0.023998,0.004 0.047998,0.008 0.072,0.012 0.023998,0 0.047998,0 0.072,0 0.031998,0 0.063998,0 0.096,0 0.031998,-0.004 0.061998,-0.008 0.09,-0.012 0.067998,-0.016 0.1339981,-0.038 0.198,-0.066 0.063998,-0.032 0.1219979,-0.068 0.174,-0.108 0.055998,-0.044 0.1059977,-0.092 0.15,-0.144 0.043998,-0.052 0.081998,-0.109999 0.114,-0.174 0.019998,-0.044 0.035998,-0.088 0.048,-0.132 0.011998,-0.044 0.019998,-0.088 0.024,-0.132 0.004,-0.02 0.006,-0.042 0.006,-0.066 0.004,-0.024 0.006,-0.046 0.006,-0.066 -2.5e-6,-0.008 -2.5e-6,-0.016 0,-0.024 -2.5e-6,-0.008 -2.5e-6,-0.016 0,-0.024 -2.5e-6,-0.008 -0.002,-0.016 -0.006,-0.024 -2.5e-6,-0.008 -2.5e-6,-0.016 0,-0.024 -2.5e-6,-0.072 -0.010002,-0.141999 -0.03,-0.21 -0.016002,-0.068 -0.040002,-0.133999 -0.072,-0.198 -0.036002,-0.06 -0.080002,-0.113998 -0.132,-0.162 -0.048002,-0.052 -0.1000022,-0.098 -0.156,-0.138 -0.064002,-0.044 -0.132002,-0.078 -0.204,-0.102 -0.068002,-0.024 -0.1380018,-0.04 -0.21,-0.048 -0.028002,-0.004 -0.056002,-0.008 -0.084,-0.012 -0.028002,-0.004 -0.054002,-0.006 -0.078,-0.006 -0.028002,2e-6 -0.056002,2e-6 -0.084,0 -0.028001,2e-6 -0.056001,2e-6 -0.084,0 l 0.348,-0.492 c 0.019998,0.004 0.037998,0.008 0.054,0.012 0.019998,2e-6 0.039998,0.002 0.06,0.006 0.095998,0.012 0.189998,0.032 0.282,0.06 0.095998,0.028 0.1859977,0.064 0.27,0.108 0.091997,0.052 0.1739974,0.114002 0.246,0.186 0.075997,0.072 0.1419972,0.152002 0.198,0.24 0.063997,0.092 0.113997,0.192002 0.15,0.3 0.039997,0.104001 0.063997,0.212001 0.072,0.324 0.004,0.032 0.006,0.066 0.006,0.102 0.004,0.032 0.006,0.064 0.006,0.096 -3.1e-6,0.084 -0.008,0.168001 -0.024,0.252 -0.012003,0.08 -0.032003,0.160001 -0.06,0.24 -0.040003,0.112 -0.092003,0.218 -0.156,0.318 -0.060003,0.1 -0.1340027,0.192 -0.222,0.276 -0.076002,0.072 -0.1580025,0.134 -0.246,0.186 -0.088002,0.048 -0.1820022,0.088 -0.282,0.12 -0.048002,0.008 -0.100002,0.016 -0.156,0.024 -0.052002,0.008 -0.1040018,0.014 -0.156,0.018 -0.024002,0.004 -0.050002,0.006 -0.078,0.006 -0.024002,0 -0.050002,0 -0.078,0 -0.016002,0 -0.034002,0 -0.054,0 -0.020002,0 -0.038002,0 -0.054,0 -0.020001,0 -0.040001,-0.002 -0.06,-0.006 -0.016001,0 -0.034001,-0.002 -0.054,-0.006 -0.1120013,-0.012 -0.2220012,-0.036 -0.33,-0.072 -0.104001,-0.04 -0.2020009,-0.092 -0.294,-0.156 -0.096001,-0.064 -0.1840006,-0.14 -0.264,-0.228 -0.076,-0.088 -0.1420004,-0.182 -0.198,-0.282 -0.0520003,-0.104 -0.0920002,-0.209999 -0.12,-0.318 -0.0240002,-0.111999 -0.0340002,-0.223999 -0.03,-0.336 0.0119998,-0.115999 0.0299998,-0.229999 0.054,-0.342 0.0239997,-0.111999 0.0539997,-0.221998 0.09,-0.33 l 1.374,-1.992"
         id="path2989"
         inkscape:connector-curvature="0" />
      <path
         d="m 4.656375,-45.62589 c 0.015999,0 0.029999,0 0.042,0 0.015999,0 0.031999,0 0.048,0 0.019999,0 0.039999,0.002 0.06,0.006 0.023999,0 0.043999,0.004 0.06,0.012 0.031999,0.008 0.059999,0.02 0.084,0.036 0.023999,0.016 0.043999,0.036 0.06,0.06 0.023999,0.028 0.041999,0.058 0.054,0.09 0.015999,0.032 0.025999,0.066 0.03,0.102 0.004,0.036 0.002,0.072 -0.006,0.108 -0.004,0.032 -0.014001,0.064 -0.03,0.096 -0.016001,0.032 -0.036001,0.06 -0.06,0.084 -0.020001,0.02 -0.046001,0.038 -0.078,0.054 -0.012001,0.008 -0.024001,0.014 -0.036,0.018 -0.012001,0.004 -0.024001,0.008 -0.036,0.012 -0.016001,0.004 -0.030001,0.006 -0.042,0.006 -0.012001,0.004 -0.024001,0.006 -0.036,0.006 -0.004,0 -0.008,0 -0.012,0 -0.004,0 -0.008,0 -0.012,0 -0.004,-0.004 -0.008,-0.006 -0.012,-0.006 -8e-7,0 -0.002,0 -0.006,0 -0.036001,0 -0.072001,-0.006 -0.108,-0.018 -0.032001,-0.008 -0.064001,-0.022 -0.096,-0.042 -0.024,-0.012 -0.044001,-0.03 -0.06,-0.054 -0.016001,-0.024 -0.028001,-0.05 -0.036,-0.078 -0.004,-0.012 -0.008,-0.024 -0.012,-0.036 -0.004,-0.012 -0.008,-0.026 -0.012,-0.042 -4e-7,-0.012 -0.002,-0.024 -0.006,-0.036 -4e-7,-0.012 -4e-7,-0.024 0,-0.036 -4e-7,-0.012 -4e-7,-0.022 0,-0.03 -4e-7,-0.012 0.002,-0.022 0.006,-0.03 0.008,-0.036 0.018,-0.07 0.03,-0.102 0.015999,-0.032 0.035999,-0.06 0.06,-0.084 0.024,-0.024 0.049999,-0.044 0.078,-0.06 0.027999,-0.016 0.055999,-0.026 0.084,-0.03 l 0,-0.006 m 0.066,-1.698 c 0.004,0.004 0.006,0.006 0.006,0.006 0.004,2e-6 0.008,2e-6 0.012,0 -8e-7,2e-6 -8e-7,2e-6 0,0 0.004,2e-6 0.008,2e-6 0.012,0 0.008,2e-6 0.015999,0.002 0.024,0.006 0.011999,2e-6 0.023999,2e-6 0.036,0 0.011999,0.004 0.021999,0.008 0.03,0.012 0.011999,0.004 0.021999,0.008 0.03,0.012 0.031999,0.016 0.059999,0.036 0.084,0.06 0.027999,0.02 0.049999,0.046 0.066,0.078 0.019999,0.028 0.031999,0.056 0.036,0.084 0.008,0.028 0.011999,0.058 0.012,0.09 -1.1e-6,0.004 -1.1e-6,0.008 0,0.012 -1.1e-6,2e-6 -1.1e-6,2e-6 0,0 -1.1e-6,0.004 -1.1e-6,0.008 0,0.012 -1.1e-6,2e-6 -1.1e-6,0.002 0,0.006 -0.004,0.036 -0.012001,0.07 -0.024,0.102 -0.012001,0.032 -0.028001,0.064 -0.048,0.096 -0.016001,0.028 -0.036001,0.052 -0.06,0.072 -0.020001,0.016 -0.046001,0.03 -0.078,0.042 -0.024001,0.008 -0.048001,0.016 -0.072,0.024 -0.024001,0.004 -0.048001,0.006 -0.072,0.006 -0.008,10e-7 -0.018001,10e-7 -0.03,0 -0.012001,10e-7 -0.024001,-0.002 -0.036,-0.006 -0.032001,-0.008 -0.064001,-0.02 -0.096,-0.036 -0.032001,-0.016 -0.060001,-0.036 -0.084,-0.06 -0.028001,-0.024 -0.05,-0.052 -0.066,-0.084 -0.012,-0.032 -0.022,-0.066 -0.03,-0.102 -0.004,-0.012 -0.006,-0.024 -0.006,-0.036 -4e-7,-0.012 -4e-7,-0.024 0,-0.036 -4e-7,-0.012 -4e-7,-0.022 0,-0.03 -4e-7,-0.012 0.002,-0.024 0.006,-0.036 -4e-7,-0.012 0.002,-0.022 0.006,-0.03 0.004,-0.012 0.008,-0.024 0.012,-0.036 0.012,-0.032 0.028,-0.062 0.048,-0.09 0.023999,-0.028 0.049999,-0.052 0.078,-0.072 0.031999,-0.02 0.063999,-0.034 0.096,-0.042 0.035999,-0.012 0.071999,-0.018 0.108,-0.018 l 0,-0.006"
         id="path2991"
         inkscape:connector-curvature="0" />
      <path
         d="m 7.006875,-49.10589 c 0.083998,0.008 0.1659981,0.022 0.246,0.042 0.083998,0.016 0.1639979,0.04 0.24,0.072 0.1519977,0.064 0.2899975,0.154003 0.414,0.27 0.1279973,0.112003 0.2319972,0.242003 0.312,0.39 0.051997,0.112003 0.089997,0.228003 0.114,0.348 0.027997,0.116002 0.041997,0.234002 0.042,0.354 -3.1e-6,0.028 -0.002,0.056 -0.006,0.084 -3.1e-6,0.024 -3.1e-6,0.048 0,0.072 -0.004,0.028 -0.008,0.056 -0.012,0.084 -0.004,0.024 -0.008,0.05 -0.012,0.078 -0.028003,0.108002 -0.066003,0.214002 -0.114,0.318 -0.044003,0.100002 -0.098003,0.196001 -0.162,0.288 l -1.152,1.698 -0.666,0 1.416,-2.106 c 0.055998,-0.076 0.097997,-0.157998 0.126,-0.246 0.027997,-0.092 0.041997,-0.183998 0.042,-0.276 -2.5e-6,-0.016 -2.5e-6,-0.03 0,-0.042 -2.5e-6,-0.016 -0.002,-0.032 -0.006,-0.048 -2.5e-6,-0.012 -0.002,-0.024 -0.006,-0.036 -2.5e-6,-0.016 -0.002,-0.032 -0.006,-0.048 -0.012002,-0.123997 -0.048002,-0.237997 -0.108,-0.342 -0.060002,-0.107997 -0.1420023,-0.197997 -0.246,-0.27 -0.052002,-0.032 -0.1060021,-0.06 -0.162,-0.084 -0.056002,-0.024 -0.1140019,-0.042 -0.174,-0.054 -0.016002,-0.004 -0.034002,-0.008 -0.054,-0.012 -0.016002,-0.004 -0.032002,-0.006 -0.048,-0.006 -0.020002,-0.004 -0.038002,-0.006 -0.054,-0.006 -0.016002,3e-6 -0.034002,3e-6 -0.054,0 -0.012002,3e-6 -0.024002,3e-6 -0.036,0 -0.012002,3e-6 -0.024002,0.002 -0.036,0.006 -0.016001,3e-6 -0.030002,0.002 -0.042,0.006 -0.012002,3e-6 -0.024001,3e-6 -0.036,0 -0.060001,0.004 -0.1180014,0.016 -0.174,0.036 -0.052001,0.02 -0.1020012,0.046 -0.15,0.078 -0.052001,0.028 -0.100001,0.064 -0.144,0.108 -0.044001,0.04 -0.082001,0.086 -0.114,0.138 -0.048001,0.088 -0.086001,0.182003 -0.114,0.282 -0.024001,0.100002 -0.036001,0.202002 -0.036,0.306 -7e-7,0.016 -7e-7,0.034 0,0.054 -7e-7,0.016 0.002,0.034 0.006,0.054 0.019999,0.124002 0.061999,0.238002 0.126,0.342 0.063999,0.104002 0.145999,0.192002 0.246,0.264 0.1079988,0.076 0.2239987,0.132001 0.348,0.168 0.1279984,0.032 0.2559983,0.044 0.384,0.036 l -0.342,0.498 c -0.1640013,-0.016 -0.3220012,-0.056 -0.474,-0.12 -0.1520009,-0.064 -0.2920007,-0.149999 -0.42,-0.258 -0.1200005,-0.127999 -0.2180004,-0.269999 -0.294,-0.426 -0.072,-0.159998 -0.1200002,-0.325998 -0.144,-0.498 -0.004,-0.084 -0.002,-0.167998 0.006,-0.252 0.008,-0.084 0.022,-0.165997 0.042,-0.246 0.04,-0.163997 0.1059997,-0.317997 0.198,-0.462 0.092,-0.143997 0.2039994,-0.265997 0.336,-0.366 0.067999,-0.056 0.1399991,-0.1 0.216,-0.132 0.075999,-0.036 0.1559989,-0.062 0.24,-0.078 0.079999,-0.024 0.1619986,-0.04 0.246,-0.048 0.083998,-0.012 0.1679984,-0.014 0.252,-0.006 l 0,-0.006"
         id="path2993"
         inkscape:connector-curvature="0" />
    </g>
  </g>
</svg>
