<?xml version="1.0" encoding="UTF-8" standalone="no"?>
<!-- Created with Inkscape (http://www.inkscape.org/) -->

<svg
   xmlns:dc="http://purl.org/dc/elements/1.1/"
   xmlns:cc="http://creativecommons.org/ns#"
   xmlns:rdf="http://www.w3.org/1999/02/22-rdf-syntax-ns#"
   xmlns:svg="http://www.w3.org/2000/svg"
   xmlns="http://www.w3.org/2000/svg"
   xmlns:sodipodi="http://sodipodi.sourceforge.net/DTD/sodipodi-0.dtd"
   xmlns:inkscape="http://www.inkscape.org/namespaces/inkscape"
   version="1.0"
   width="536.29309"
   height="536.29309"
   id="svg39021"
   inkscape:version="0.48.5 r10040"
   sodipodi:docname="DVB.svg">
  <metadata
     id="metadata33">
    <rdf:RDF>
      <cc:Work
         rdf:about="">
        <dc:format>image/svg+xml</dc:format>
        <dc:type
           rdf:resource="http://purl.org/dc/dcmitype/StillImage" />
      </cc:Work>
    </rdf:RDF>
  </metadata>
  <sodipodi:namedview
     pagecolor="#ffffff"
     bordercolor="#666666"
     borderopacity="1"
     objecttolerance="10"
     gridtolerance="10"
     guidetolerance="10"
     inkscape:pageopacity="0"
     inkscape:pageshadow="2"
     inkscape:window-width="1680"
     inkscape:window-height="988"
     id="namedview31"
     showgrid="false"
     fit-margin-top="0"
     fit-margin-left="0"
     fit-margin-right="0"
     fit-margin-bottom="0"
     inkscape:zoom="1.084145"
     inkscape:cx="108.01641"
     inkscape:cy="237.60491"
     inkscape:window-x="-2"
     inkscape:window-y="-3"
     inkscape:window-maximized="1"
     inkscape:current-layer="g39054" />
  <defs
     id="defs39023" />
  <g
     transform="translate(-89.687678,-374.12206)"
     id="layer1">
    <g
       transform="translate(3.542452,3.539235)"
       id="g39054">
      <path
         d="m 96.963928,771.63961 0,-267.45959 130.387902,0 c 0,0 42.33356,2.26354 65.41799,49.11425 12.09781,24.55722 55.56053,178.30634 55.56053,178.30634 L 437.7289,504.18002 c 0,0 44.12578,0 103.05581,0 91.62104,0 66.52917,132.52329 30.68372,132.52329 -3.40532,0 -6.61355,-0.12821 -4.48067,-0.12821 60.93731,0 51.29491,135.06451 -15.00136,135.06451 -152.12822,0 -151.91315,0 -151.91315,0 l 18.15578,-42.96449 c 0,0 71.6909,-0.2775 115.3687,-0.2775 34.28613,0 48.62428,-71.53615 -13.20914,-71.53615 -9.85747,0 -30.25359,-0.12803 -30.25359,-0.12803 l 15.2344,-43.24201 c 0,0 23.06645,-0.4057 27.79818,-0.4057 34.93135,0 47.26221,-64.0623 -4.05054,-64.0623 -38.53391,0 -63.84085,0 -63.84085,0 l -87.37328,222.61618 -59.1451,0 -63.62565,-195.92363 c 0,0 -8.28032,-26.69255 -41.45543,-26.69255 -19.48189,0 -71.00986,0 -71.00986,0 l 0,179.37419 c 0,0 22.1705,0 65.86612,0 36.52649,0 58.24886,-45.91127 58.24886,-45.91127 7.63511,22.74207 17.02661,47.51285 17.02661,47.51285 0,0 -24.42867,41.64041 -55.1124,41.64041 -9.64239,0 -131.732132,0 -131.732132,0"
         style="fill:#ffffff;fill-rule:nonzero;stroke:none"
         id="path38864"
         inkscape:connector-curvature="0" />
    </g>
  </g>
</svg>
