<?xml version="1.0" encoding="UTF-8" standalone="no"?>
<!-- Created with Inkscape (http://www.inkscape.org/) -->

<svg
   xmlns:dc="http://purl.org/dc/elements/1.1/"
   xmlns:cc="http://creativecommons.org/ns#"
   xmlns:rdf="http://www.w3.org/1999/02/22-rdf-syntax-ns#"
   xmlns:svg="http://www.w3.org/2000/svg"
   xmlns="http://www.w3.org/2000/svg"
   xmlns:sodipodi="http://sodipodi.sourceforge.net/DTD/sodipodi-0.dtd"
   xmlns:inkscape="http://www.inkscape.org/namespaces/inkscape"
   width="128"
   height="128"
   id="svg2"
   version="1.1"
   inkscape:version="0.48.5 r10040"
   sodipodi:docname="folder_on.svg">
  <defs
     id="defs4" />
  <sodipodi:namedview
     id="base"
     pagecolor="#000000"
     bordercolor="#666666"
     borderopacity="1.0"
     inkscape:pageopacity="0.0"
     inkscape:pageshadow="2"
     inkscape:zoom="0.70710678"
     inkscape:cx="-194.58031"
     inkscape:cy="446.16089"
     inkscape:document-units="px"
     inkscape:current-layer="g3210"
     showgrid="false"
     inkscape:window-width="1680"
     inkscape:window-height="988"
     inkscape:window-x="-2"
     inkscape:window-y="-3"
     inkscape:window-maximized="1">
    <inkscape:grid
       type="xygrid"
       id="grid3193"
       empspacing="5"
       visible="true"
       enabled="true"
       snapvisiblegridlinesonly="true" />
  </sodipodi:namedview>
  <metadata
     id="metadata7">
    <rdf:RDF>
      <cc:Work
         rdf:about="">
        <dc:format>image/svg+xml</dc:format>
        <dc:type
           rdf:resource="http://purl.org/dc/dcmitype/StillImage" />
        <dc:title></dc:title>
      </cc:Work>
    </rdf:RDF>
  </metadata>
  <g
     inkscape:label="Ebene 1"
     inkscape:groupmode="layer"
     id="layer1"
     transform="translate(0,-924.36218)">
    <g
       id="g3210"
       transform="matrix(0.71149168,-0.70269452,0.70269452,0.71149168,-227.03696,410.31063)">
      <path
         style="fill:#000000;fill-opacity:1"
         d="m -194.41483,540.90349 c -5.81047,-5.73863 -15.09011,-5.68091 -20.82873,0.12957 l -10.67849,10.81217 -37.73652,38.20895 -10.17416,10.30154 c -5.87608,5.94962 -5.79485,15.46001 0.15478,21.33607 l 69.5798,68.7195 c 5.94963,5.87606 15.46029,5.83896 21.33635,-0.11067 l 47.91068,-48.51048 c 5.87607,-5.94963 5.81677,-15.48222 -0.13286,-21.35828 l -41.7612,-41.24486 0.0657,-0.0666 c 5.73862,-5.81048 5.6809,-15.0901 -0.12957,-20.82874 l -17.60582,-17.38814 z m -17.58744,17.49677 70.73428,69.8597 c 1.87134,1.84821 1.88992,4.83622 0.0417,6.70756 l -48.78778,49.39855 c -1.8482,1.87134 -4.85814,1.91213 -6.72949,0.0639 l -70.73428,-69.85967 c -1.87134,-1.84822 -1.86801,-4.85843 -0.0198,-6.72977 l 48.78776,-49.39855 c 1.84821,-1.87134 4.83622,-1.88993 6.70757,-0.0417 z"
         id="rect3367-2"
         inkscape:connector-curvature="0" />
    </g>
  </g>
</svg>
