<?xml version="1.0" encoding="UTF-8" standalone="no"?>
<!-- Created with Inkscape (http://www.inkscape.org/) -->

<svg
   xmlns:dc="http://purl.org/dc/elements/1.1/"
   xmlns:cc="http://creativecommons.org/ns#"
   xmlns:rdf="http://www.w3.org/1999/02/22-rdf-syntax-ns#"
   xmlns:svg="http://www.w3.org/2000/svg"
   xmlns="http://www.w3.org/2000/svg"
   xmlns:sodipodi="http://sodipodi.sourceforge.net/DTD/sodipodi-0.dtd"
   xmlns:inkscape="http://www.inkscape.org/namespaces/inkscape"
   version="1.0"
   width="128"
   height="128"
   id="svg39021"
   inkscape:version="0.48.5 r10040"
   sodipodi:docname="Recordings.svg">
  <metadata
     id="metadata33">
    <rdf:RDF>
      <cc:Work
         rdf:about="">
        <dc:format>image/svg+xml</dc:format>
        <dc:type
           rdf:resource="http://purl.org/dc/dcmitype/StillImage" />
        <dc:title />
      </cc:Work>
    </rdf:RDF>
  </metadata>
  <sodipodi:namedview
     pagecolor="#ffffff"
     bordercolor="#666666"
     borderopacity="1"
     objecttolerance="10"
     gridtolerance="10"
     guidetolerance="10"
     inkscape:pageopacity="0"
     inkscape:pageshadow="2"
     inkscape:window-width="836"
     inkscape:window-height="983"
     id="namedview31"
     showgrid="false"
     fit-margin-top="0"
     fit-margin-left="0"
     fit-margin-right="0"
     fit-margin-bottom="0"
     inkscape:zoom="2"
     inkscape:cx="49.93458"
     inkscape:cy="-13.783018"
     inkscape:window-x="840"
     inkscape:window-y="0"
     inkscape:window-maximized="0"
     inkscape:current-layer="g39054" />
  <defs
     id="defs39023" />
  <g
     transform="translate(-209.30666,-711.64452)"
     id="layer1">
    <g
       transform="translate(3.542452,3.539235)"
       id="g39054">
      <path
         style="fill:#ffffff;fill-opacity:1;stroke:none"
         d="M 49.0625 0 C 21.969878 9.4739034e-15 0 21.981214 0 49.0625 C 0 76.143786 21.969878 98.09375 49.0625 98.09375 C 76.155122 98.09375 98.125 76.143786 98.125 49.0625 C 98.125 21.981214 76.155122 -2.3684758e-14 49.0625 0 z M 50.78125 9.3125 C 57.39932 9.5435596 62.102322 14.926199 60.59375 19.03125 C 58.454155 24.853408 54.696654 28.667646 49.4375 28.71875 C 43.547723 28.775981 39.54792 24.354971 38.25 19.03125 C 36.58479 12.201007 42.726761 9.8186135 49.4375 9.34375 C 49.894319 9.3114247 50.340045 9.297096 50.78125 9.3125 z M 76.8125 28.75 C 80.64244 28.431733 85.529947 32.003866 86.6875 37.84375 C 87.99552 44.44288 87.30896 50.9964 80.28125 51.1875 C 74.80363 51.33646 69.46365 48.66593 67.96875 42.96875 C 66.63391 37.88155 69.32121 33.22147 74.375 29.625 C 75.087659 29.117844 75.928668 28.823446 76.8125 28.75 z M 20.78125 28.84375 C 22.000938 28.76067 23.174788 29.011293 24.125 29.6875 C 29.17879 33.28397 31.86609 37.94405 30.53125 43.03125 C 29.03635 48.72843 23.69637 51.39896 18.21875 51.25 C 11.19104 51.0589 10.50448 44.53663 11.8125 37.9375 C 12.88101 32.546838 17.122187 29.092991 20.78125 28.84375 z M 48.96875 42.03125 C 52.835287 42.03125 55.96875 45.150572 55.96875 49 C 55.96875 52.849428 52.835287 55.96875 48.96875 55.96875 C 45.102213 55.96875 41.96875 52.849428 41.96875 49 C 41.96875 45.150572 45.102213 42.03125 48.96875 42.03125 z M 66.9375 63.9375 C 69.72164 63.825797 72.730241 64.752166 75.75 66.5 C 79.7875 68.83692 79.29329 76.81666 73.34375 81.09375 C 67.88127 85.02067 61.65079 87.09691 58.5625 80.78125 C 56.15537 75.85863 56.37325 69.91043 60.9375 66.1875 C 62.720562 64.733106 64.772058 64.02438 66.9375 63.9375 z M 31.03125 64.59375 C 32.864114 64.508276 34.655164 64.909574 36.375 65.875 C 41.51114 68.75816 42.77536 74.58069 41.25 79.84375 C 39.29301 86.59619 32.77482 85.61725 26.71875 82.6875 C 20.12269 79.49648 18.29917 71.71475 21.875 68.71875 C 24.846625 66.228988 27.976477 64.736207 31.03125 64.59375 z "
         transform="translate(205.76421,708.10529)"
         id="path3104" />
      <path
         style="fill:none;stroke:#ffffff;stroke-width:9.19999980999999956;stroke-linecap:round;stroke-linejoin:miter;stroke-miterlimit:4;stroke-opacity:1;stroke-dasharray:none"
         d="m 80.625,14.375 c 49.63604,3.381728 43.91849,52.581111 38.98959,61.938185 -4.9289,9.357074 -23.75873,36.859015 3.46488,47.112065"
         id="path3204"
         inkscape:connector-curvature="0"
         transform="translate(205.76421,708.10529)"
         sodipodi:nodetypes="czc" />
    </g>
  </g>
</svg>
