<?xml version="1.0" encoding="UTF-8" standalone="no"?>
<!-- Created with Inkscape (http://www.inkscape.org/) -->

<svg
   xmlns:dc="http://purl.org/dc/elements/1.1/"
   xmlns:cc="http://creativecommons.org/ns#"
   xmlns:rdf="http://www.w3.org/1999/02/22-rdf-syntax-ns#"
   xmlns:svg="http://www.w3.org/2000/svg"
   xmlns="http://www.w3.org/2000/svg"
   xmlns:sodipodi="http://sodipodi.sourceforge.net/DTD/sodipodi-0.dtd"
   xmlns:inkscape="http://www.inkscape.org/namespaces/inkscape"
   width="20.884953"
   height="11.658171"
   id="svg2"
   version="1.1"
   inkscape:version="0.48.5 r10040"
   sodipodi:docname="hd_on.svg">
  <defs
     id="defs4" />
  <sodipodi:namedview
     id="base"
     pagecolor="#b3b3b3"
     bordercolor="#666666"
     borderopacity="1.0"
     inkscape:pageopacity="0.0"
     inkscape:pageshadow="2"
     inkscape:zoom="8"
     inkscape:cx="-13.063825"
     inkscape:cy="-20.738053"
     inkscape:document-units="px"
     inkscape:current-layer="layer1"
     showgrid="false"
     fit-margin-top="0"
     fit-margin-left="0"
     fit-margin-right="0"
     fit-margin-bottom="0"
     inkscape:window-width="836"
     inkscape:window-height="983"
     inkscape:window-x="0"
     inkscape:window-y="0"
     inkscape:window-maximized="0" />
  <metadata
     id="metadata7">
    <rdf:RDF>
      <cc:Work
         rdf:about="">
        <dc:format>image/svg+xml</dc:format>
        <dc:type
           rdf:resource="http://purl.org/dc/dcmitype/StillImage" />
        <dc:title />
      </cc:Work>
    </rdf:RDF>
  </metadata>
  <g
     inkscape:label="Ebene 1"
     inkscape:groupmode="layer"
     id="layer1"
     transform="translate(-380.985,-718.71441)">
    <g
       transform="matrix(3.1268038,0,0,2.8700568,388.12349,859.53056)"
       style="font-size:6px;font-style:normal;font-variant:normal;font-weight:bold;font-stretch:normal;line-height:125%;letter-spacing:0px;word-spacing:0px;fill:#b3b3b3;fill-opacity:1;stroke:none;font-family:Opal;-inkscape-font-specification:Opal Bold"
       id="flowRoot2994-0">
      <path
         inkscape:connector-curvature="0"
         d="m -2.283,-49.03989 0.558,0 0,1.68 1.77,0 0,-1.68 0.546,0 0,4.032 -0.546,0 0,-1.818 -1.77,0 0,1.818 -0.558,0 0,-4.032"
         style="fill:#b3b3b3"
         id="path2988-2" />
      <path
         inkscape:connector-curvature="0"
         d="m 1.3615312,-49.06389 1.128,0 c 0.1159985,0.012 0.2279984,0.034 0.3360001,0.066 0.111998,0.028 0.2199979,0.064 0.324,0.108 0.1039977,0.044 0.2039976,0.096 0.3,0.156 0.095997,0.06 0.1879973,0.128003 0.276,0.204 0.1359971,0.136003 0.253997,0.286003 0.354,0.45 0.099997,0.160003 0.1799967,0.332002 0.24,0.516 0.031997,0.124002 0.053997,0.250002 0.066,0.378 0.011997,0.128002 0.013997,0.256002 0.006,0.384 -0.008,0.088 -0.024003,0.178001 -0.048,0.27 -0.024003,0.088 -0.054003,0.176001 -0.09,0.264 -0.052003,0.116001 -0.1120031,0.228001 -0.18,0.336 -0.064003,0.108 -0.1380029,0.212 -0.2219999,0.312 -0.064003,0.068 -0.1340027,0.132 -0.21,0.192 -0.072003,0.056 -0.1480025,0.108 -0.228,0.156 -0.1320023,0.084 -0.2720022,0.15 -0.42,0.198 -0.1480019,0.044 -0.3020017,0.066 -0.462,0.066 -0.064002,0.004 -0.1300014,0.006 -0.198,0.006 -0.064001,0 -0.1300012,-0.002 -0.198,-0.006 l 0,-0.522 c 0.023999,0.004 0.047999,0.008 0.072,0.012 0.023999,0 0.047999,0 0.072,0 0.019999,0 0.041999,0 0.066,0 0.023999,-0.004 0.047999,-0.006 0.072,-0.006 0.047999,0 0.095999,-0.002 0.1439999,-0.006 0.047998,-0.008 0.095998,-0.014 0.1440001,-0.018 0.079998,-0.02 0.1579981,-0.046 0.234,-0.078 0.075998,-0.032 0.1499979,-0.068 0.222,-0.108 0.055998,-0.036 0.1059977,-0.074 0.1499999,-0.114 0.047998,-0.044 0.091998,-0.09 0.1320001,-0.138 0.059998,-0.064 0.1139974,-0.129999 0.1619999,-0.198 0.047997,-0.072 0.091997,-0.145999 0.1320001,-0.222 0.031997,-0.08 0.053997,-0.163999 0.066,-0.252 0.015997,-0.088 0.023997,-0.175999 0.024,-0.264 0.008,-0.08 0.008,-0.157998 0,-0.234 -0.008,-0.076 -0.022003,-0.151998 -0.042,-0.228 -0.024003,-0.092 -0.056003,-0.181998 -0.096,-0.27 -0.036003,-0.092 -0.082003,-0.177998 -0.138,-0.258 -0.040003,-0.064 -0.088002,-0.121997 -0.144,-0.174 -0.052002,-0.056 -0.1080023,-0.105997 -0.1680001,-0.15 -0.064002,-0.048 -0.132002,-0.09 -0.2039999,-0.126 -0.068002,-0.036 -0.1420019,-0.068 -0.222,-0.096 -0.072002,-0.02 -0.1460017,-0.036 -0.222,-0.048 -0.072002,-0.012 -0.1460015,-0.02 -0.222,-0.024 -0.036001,-0.004 -0.074001,-0.006 -0.114,-0.006 -0.036001,3e-6 -0.072001,3e-6 -0.108,0 -0.040001,3e-6 -0.082001,3e-6 -0.1260001,0 -0.040001,3e-6 -0.082001,0.004 -0.126,0.012 l 0,3.516 -0.534,0 0,-4.056"
         style="fill:#b3b3b3"
         id="path2990-5" />
    </g>
  </g>
</svg>
