<?xml version="1.0" encoding="UTF-8" standalone="no"?>
<!-- Created with Inkscape (http://www.inkscape.org/) -->

<svg
   xmlns:dc="http://purl.org/dc/elements/1.1/"
   xmlns:cc="http://creativecommons.org/ns#"
   xmlns:rdf="http://www.w3.org/1999/02/22-rdf-syntax-ns#"
   xmlns:svg="http://www.w3.org/2000/svg"
   xmlns="http://www.w3.org/2000/svg"
   xmlns:sodipodi="http://sodipodi.sourceforge.net/DTD/sodipodi-0.dtd"
   xmlns:inkscape="http://www.inkscape.org/namespaces/inkscape"
   width="128"
   height="128"
   id="svg2"
   version="1.1"
   inkscape:version="0.48.5 r10040"
   sodipodi:docname="newrecording_on.svg">
  <defs
     id="defs4" />
  <sodipodi:namedview
     id="base"
     pagecolor="#ffffff"
     bordercolor="#666666"
     borderopacity="1.0"
     inkscape:pageopacity="0.0"
     inkscape:pageshadow="2"
     inkscape:zoom="1"
     inkscape:cx="-25.201009"
     inkscape:cy="-25.730693"
     inkscape:document-units="px"
     inkscape:current-layer="g2990"
     showgrid="false"
     inkscape:window-width="836"
     inkscape:window-height="983"
     inkscape:window-x="0"
     inkscape:window-y="0"
     inkscape:window-maximized="0">
    <inkscape:grid
       type="xygrid"
       id="grid3193"
       empspacing="5"
       visible="true"
       enabled="true"
       snapvisiblegridlinesonly="true" />
  </sodipodi:namedview>
  <metadata
     id="metadata7">
    <rdf:RDF>
      <cc:Work
         rdf:about="">
        <dc:format>image/svg+xml</dc:format>
        <dc:type
           rdf:resource="http://purl.org/dc/dcmitype/StillImage" />
        <dc:title></dc:title>
      </cc:Work>
    </rdf:RDF>
  </metadata>
  <g
     inkscape:label="Ebene 1"
     inkscape:groupmode="layer"
     id="layer1"
     transform="translate(0,-924.36218)">
    <g
       id="g3210"
       transform="matrix(0.71149168,-0.70269452,0.70269452,0.71149168,-227.03696,410.31063)">
      <g
         id="g2990"
         transform="translate(-467.90689,200.44235)">
        <path
           inkscape:connector-curvature="0"
           id="path3270"
           d="m 259.638,481.92023 -13.73383,-42.17626 -42.52975,-12.59678 35.86804,-26.09482 -1.16217,-44.3408 35.9015,26.04877 41.81146,-14.80736 -13.67968,42.19389 27.0031,35.18933 -44.35602,0.0285 z"
           inkscape:transform-center-y="-6.2367679"
           inkscape:transform-center-x="0.14866366"
           style="fill:#ffffff" />
        <path
           inkscape:connector-curvature="0"
           id="path3270-5"
           d="m 221.12448,462.09877 14.50847,-41.9161 -26.30444,-35.71463 44.34795,0.84559 25.83811,-36.05342 12.90009,42.43871 42.27325,13.43237 -36.37528,25.383 0.28822,44.35508 -35.38124,-26.75117 z"
           inkscape:transform-center-y="7.3382845"
           inkscape:transform-center-x="0.7908516"
           style="fill:#ffffff" />
        <g
           id="flowRoot3310"
           style="font-size:40px;font-style:normal;font-weight:bold;line-height:125%;letter-spacing:0px;word-spacing:0px;fill:#1a1a1a;fill-opacity:1;stroke:none;font-family:Sans;-inkscape-font-specification:Sans Bold"
           transform="matrix(0.47927238,0.47334644,-0.58859866,0.59596742,527.84547,4.8053768)">
          <path
             inkscape:connector-curvature="0"
             id="path2991"
             d="m 105.92188,552.83481 8.39843,0 10.60547,20 0,-20 7.12891,0 0,29.16016 -8.39844,0 -10.60547,-20 0,20 -7.1289,0 0,-29.16016"
             style="fill:#1a1a1a" />
          <path
             inkscape:connector-curvature="0"
             id="path2993"
             d="m 139.4375,552.83481 20.29297,0 0,5.68359 -12.77344,0 0,5.42969 12.01172,0 0,5.6836 -12.01172,0 0,6.67968 13.20313,0 0,5.6836 -20.72266,0 0,-29.16016"
             style="fill:#1a1a1a" />
          <path
             inkscape:connector-curvature="0"
             id="path2995"
             d="m 164.30078,552.83481 7.20703,0 5.03906,21.19141 5,-21.19141 7.2461,0 5,21.19141 5.03906,-21.19141 7.14844,0 -6.875,29.16016 -8.67188,0 -5.29297,-22.16797 -5.23437,22.16797 -8.67188,0 -6.93359,-29.16016"
             style="fill:#1a1a1a" />
        </g>
      </g>
    </g>
  </g>
</svg>
